<svg width="40" height="7" viewBox="0 0 40 7" fill="none" xmlns="http://www.w3.org/2000/svg">
<path d="M6.31641 3.56274C6.31641 4.42116 6.06237 5.10442 5.55325 5.61456C4.9755 6.221 4.22156 6.52421 3.29552 6.52421C2.40841 6.52421 1.65345 6.2169 1.0337 5.60227C0.412925 4.98662 0.102538 4.22448 0.102538 3.31484C0.102538 2.40416 0.412925 1.64203 1.0337 1.0274C1.65345 0.41175 2.40841 0.104438 3.29552 0.104438C3.73601 0.104438 4.15702 0.190485 4.55653 0.361556C4.95706 0.533651 5.27769 0.762088 5.5174 1.04789L4.97755 1.58876C4.57087 1.10218 4.01054 0.859404 3.2945 0.859404C2.64709 0.859404 2.08778 1.08682 1.61554 1.54164C1.1433 1.99646 0.907698 2.58753 0.907698 3.31381C0.907698 4.0401 1.1433 4.63116 1.61554 5.08599C2.08778 5.54081 2.64709 5.76822 3.2945 5.76822C3.98083 5.76822 4.55346 5.53978 5.01136 5.08189C5.30843 4.78379 5.48052 4.36892 5.52662 3.83727H3.2945V3.09869H6.27236C6.3031 3.25952 6.31641 3.4142 6.31641 3.56274Z" fill="white"/>
<path d="M11.0389 0.995703H8.24029V2.94407H10.7644V3.68265H8.24029V5.63101H11.0389V6.387H7.4505V0.240737H11.0389V0.995703Z" fill="white"/>
<path d="M14.369 6.387H13.5792V0.995703H11.8624V0.240737H16.0859V0.995703H14.369V6.387Z" fill="white"/>
<path d="M19.1416 6.387V0.240737H19.9314V6.387H19.1416Z" fill="white"/>
<path d="M23.4339 6.387H22.6441V0.995703H20.9272V0.240737H25.1507V0.995703H23.4339V6.387Z" fill="white"/>
<path d="M33.1458 5.5931C32.5414 6.21387 31.7905 6.52426 30.8921 6.52426C29.9937 6.52426 29.2429 6.21387 28.6395 5.5931C28.0351 4.97233 27.734 4.21224 27.734 3.31386C27.734 2.41548 28.0351 1.65539 28.6395 1.03462C29.2429 0.413847 29.9937 0.102436 30.8921 0.102436C31.7854 0.102436 32.5352 0.414871 33.1417 1.03872C33.7481 1.66256 34.0513 2.4206 34.0513 3.31386C34.0513 4.21224 33.7491 4.97233 33.1458 5.5931ZM29.2224 5.07784C29.6772 5.53881 30.2335 5.76827 30.8921 5.76827C31.5508 5.76827 32.1081 5.53778 32.5619 5.07784C33.0167 4.61687 33.2451 4.02888 33.2451 3.31386C33.2451 2.59885 33.0167 2.01085 32.5619 1.54988C32.1081 1.08891 31.5508 0.859452 30.8921 0.859452C30.2335 0.859452 29.6772 1.08994 29.2224 1.54988C28.7686 2.01085 28.5402 2.59885 28.5402 3.31386C28.5402 4.02888 28.7686 4.61687 29.2224 5.07784Z" fill="white"/>
<path d="M35.1597 6.387V0.240737H36.1206L39.1077 5.02151H39.1415L39.1077 3.83733V0.240737H39.8975V6.387H39.0728L35.9475 1.3737H35.9137L35.9475 2.55788V6.387H35.1597Z" fill="white"/>
<path d="M6.31641 3.56274C6.31641 4.42116 6.06237 5.10442 5.55325 5.61456C4.9755 6.221 4.22156 6.52421 3.29552 6.52421C2.40841 6.52421 1.65345 6.2169 1.0337 5.60227C0.412925 4.98662 0.102538 4.22448 0.102538 3.31484C0.102538 2.40416 0.412925 1.64203 1.0337 1.0274C1.65345 0.41175 2.40841 0.104438 3.29552 0.104438C3.73601 0.104438 4.15702 0.190485 4.55653 0.361556C4.95706 0.533651 5.27769 0.762088 5.5174 1.04789L4.97755 1.58876C4.57087 1.10218 4.01054 0.859404 3.2945 0.859404C2.64709 0.859404 2.08778 1.08682 1.61554 1.54164C1.1433 1.99646 0.907698 2.58753 0.907698 3.31381C0.907698 4.0401 1.1433 4.63116 1.61554 5.08599C2.08778 5.54081 2.64709 5.76822 3.2945 5.76822C3.98083 5.76822 4.55346 5.53978 5.01136 5.08189C5.30843 4.78379 5.48052 4.36892 5.52662 3.83727H3.2945V3.09869H6.27236C6.3031 3.25952 6.31641 3.4142 6.31641 3.56274Z" stroke="white" stroke-width="0.2" stroke-miterlimit="10"/>
<path d="M11.0389 0.995703H8.24029V2.94407H10.7644V3.68265H8.24029V5.63101H11.0389V6.387H7.4505V0.240737H11.0389V0.995703Z" stroke="white" stroke-width="0.2" stroke-miterlimit="10"/>
<path d="M14.369 6.387H13.5792V0.995703H11.8624V0.240737H16.0859V0.995703H14.369V6.387Z" stroke="white" stroke-width="0.2" stroke-miterlimit="10"/>
<path d="M19.1416 6.387V0.240737H19.9314V6.387H19.1416Z" stroke="white" stroke-width="0.2" stroke-miterlimit="10"/>
<path d="M23.4339 6.387H22.6441V0.995703H20.9272V0.240737H25.1507V0.995703H23.4339V6.387Z" stroke="white" stroke-width="0.2" stroke-miterlimit="10"/>
<path d="M33.1458 5.5931C32.5414 6.21387 31.7905 6.52426 30.8921 6.52426C29.9937 6.52426 29.2429 6.21387 28.6395 5.5931C28.0351 4.97233 27.734 4.21224 27.734 3.31386C27.734 2.41548 28.0351 1.65539 28.6395 1.03462C29.2429 0.413847 29.9937 0.102436 30.8921 0.102436C31.7854 0.102436 32.5352 0.414871 33.1417 1.03872C33.7481 1.66256 34.0513 2.4206 34.0513 3.31386C34.0513 4.21224 33.7491 4.97233 33.1458 5.5931ZM29.2224 5.07784C29.6772 5.53881 30.2335 5.76827 30.8921 5.76827C31.5508 5.76827 32.1081 5.53778 32.5619 5.07784C33.0167 4.61687 33.2451 4.02888 33.2451 3.31386C33.2451 2.59885 33.0167 2.01085 32.5619 1.54988C32.1081 1.08891 31.5508 0.859452 30.8921 0.859452C30.2335 0.859452 29.6772 1.08994 29.2224 1.54988C28.7686 2.01085 28.5402 2.59885 28.5402 3.31386C28.5402 4.02888 28.7686 4.61687 29.2224 5.07784Z" stroke="white" stroke-width="0.2" stroke-miterlimit="10"/>
<path d="M35.1597 6.387V0.240737H36.1206L39.1077 5.02151H39.1415L39.1077 3.83733V0.240737H39.8975V6.387H39.0728L35.9475 1.3737H35.9137L35.9475 2.55788V6.387H35.1597Z" stroke="white" stroke-width="0.2" stroke-miterlimit="10"/>
</svg>
