<svg width="85" height="18" viewBox="0 0 85 18" fill="none" xmlns="http://www.w3.org/2000/svg">
<path d="M27.1656 4.71644C24.8074 4.71644 22.8853 6.51017 22.8853 8.98068C22.8853 11.4362 24.8074 13.2449 27.1656 13.2449C29.5249 13.2449 31.4469 11.4362 31.4469 8.98068C31.4459 6.51017 29.5238 4.71644 27.1656 4.71644ZM27.1656 11.5665C25.8732 11.5665 24.7593 10.5007 24.7593 8.98168C24.7593 7.44664 25.8742 6.39686 27.1656 6.39686C28.458 6.39686 29.572 7.44664 29.572 8.98168C29.572 10.4997 28.458 11.5665 27.1656 11.5665ZM17.827 4.71644C15.4688 4.71644 13.5467 6.51017 13.5467 8.98068C13.5467 11.4362 15.4688 13.2449 17.827 13.2449C20.1862 13.2449 22.1083 11.4362 22.1083 8.98068C22.1083 6.51017 20.1862 4.71644 17.827 4.71644ZM17.827 11.5665C16.5346 11.5665 15.4207 10.5007 15.4207 8.98168C15.4207 7.44664 16.5356 6.39686 17.827 6.39686C19.1194 6.39686 20.2333 7.44664 20.2333 8.98168C20.2344 10.4997 19.1194 11.5665 17.827 11.5665ZM6.71972 6.02589V7.83466H11.0491C10.9198 8.85234 10.5809 9.5953 10.0635 10.1117C9.43387 10.7413 8.44828 11.4362 6.71972 11.4362C4.05469 11.4362 1.9712 9.28749 1.9712 6.62246C1.9712 3.95744 4.05469 1.80877 6.71972 1.80877C8.15751 1.80877 9.20728 2.37426 9.98232 3.10118L11.2587 1.82481C10.1758 0.791086 8.73904 8.87349e-07 6.71972 8.87349e-07C3.06909 8.87349e-07 -1.8359e-07 2.97184 -1.8359e-07 6.62246C-1.8359e-07 10.2731 3.06909 13.2449 6.71972 13.2449C8.68991 13.2449 10.1768 12.5982 11.3389 11.387C12.5341 10.1919 12.906 8.51144 12.906 7.15486C12.906 6.73576 12.8739 6.34774 12.8088 6.02489H6.71972V6.02589ZM52.1475 7.43059C51.7926 6.47808 50.7097 4.71644 48.4969 4.71644C46.3001 4.71644 44.4743 6.445 44.4743 8.98068C44.4743 11.371 46.284 13.2449 48.7064 13.2449C50.6606 13.2449 51.7916 12.0498 52.2608 11.3549L50.807 10.3854C50.3227 11.0963 49.6599 11.5645 48.7064 11.5645C47.7539 11.5645 47.0751 11.1283 46.639 10.2721L52.341 7.91387L52.1475 7.43059ZM46.3322 8.85234C46.284 7.20399 47.6085 6.36478 48.562 6.36478C49.305 6.36478 49.9347 6.73676 50.1452 7.26917L46.3322 8.85234ZM41.6969 12.9872H43.5699V0.453196H41.6969V12.9872ZM38.6268 5.66995H38.5627C38.1426 5.16863 37.3344 4.71644 36.3178 4.71644C34.1851 4.71644 32.231 6.59038 32.231 8.99772C32.231 11.388 34.1851 13.2459 36.3178 13.2459C37.3354 13.2459 38.1426 12.7937 38.5627 12.2774H38.6268V12.891C38.6268 14.5223 37.7545 15.3946 36.3498 15.3946C35.2028 15.3946 34.4919 14.5714 34.2012 13.8766L32.5699 14.5554C33.0381 15.6854 34.2814 17.075 36.3498 17.075C38.5466 17.075 40.4045 15.7826 40.4045 12.6323V4.97612H38.6279V5.66995H38.6268ZM36.4792 11.5665C35.1868 11.5665 34.1049 10.4836 34.1049 8.99772C34.1049 7.49476 35.1868 6.39686 36.4792 6.39686C37.7546 6.39686 38.7562 7.49476 38.7562 8.99772C38.7562 10.4836 37.7546 11.5665 36.4792 11.5665ZM60.9246 0.453196H56.4418V12.9872H58.3117V8.23872H60.9236C62.9971 8.23872 65.0365 6.73777 65.0365 4.34646C65.0365 1.95516 62.9981 0.453196 60.9246 0.453196ZM60.9728 6.49412H58.3117V2.1978H60.9728C62.3715 2.1978 63.1656 3.35585 63.1656 4.34646C63.1656 5.31702 62.3715 6.49412 60.9728 6.49412ZM72.5353 4.69438C71.1807 4.69438 69.778 5.29095 69.1975 6.61344L70.8578 7.30626C71.2128 6.61344 71.8745 6.38684 72.5673 6.38684C73.5349 6.38684 74.5185 6.96737 74.5345 7.99909V8.12843C74.1956 7.93492 73.4697 7.64516 72.5834 7.64516C70.7937 7.64516 68.9709 8.62875 68.9709 10.4666C68.9709 12.144 70.4387 13.2239 72.0831 13.2239C73.3404 13.2239 74.0342 12.6594 74.4694 11.9976H74.5335V12.9652H76.3403V8.15952C76.3413 5.93565 74.6789 4.69438 72.5353 4.69438ZM72.3087 11.5635C71.697 11.5635 70.8418 11.2567 70.8418 10.4987C70.8418 9.53113 71.9066 9.16015 72.826 9.16015C73.6472 9.16015 74.0352 9.33762 74.5345 9.57926C74.3891 10.7413 73.3895 11.5635 72.3087 11.5635ZM82.9196 4.9681L80.775 10.4024H80.7108L78.485 4.9681H76.4696L79.8074 12.5631L77.9044 16.7883H79.8556L85.0001 4.9681H82.9196ZM66.0692 12.9872H67.9391V0.453196H66.0692V12.9872Z" fill="white"/>
</svg>
