<svg width="36" height="37" viewBox="0 0 36 37" fill="none" xmlns="http://www.w3.org/2000/svg">
<path d="M6.43967 12.785C6.72096 12.496 7.10242 12.3337 7.50017 12.3337C7.89791 12.3337 8.27938 12.496 8.56067 12.785L18.0002 22.4868L27.4397 12.785C27.7226 12.5042 28.1015 12.3488 28.4948 12.3523C28.8881 12.3559 29.2643 12.518 29.5424 12.8038C29.8205 13.0897 29.9783 13.4763 29.9817 13.8806C29.9851 14.2848 29.8339 14.6742 29.5607 14.965L19.0607 25.7566C18.7794 26.0456 18.3979 26.208 18.0002 26.208C17.6024 26.208 17.221 26.0456 16.9397 25.7566L6.43967 14.965C6.15846 14.6759 6.00049 14.2838 6.00049 13.875C6.00049 13.4662 6.15846 13.0742 6.43967 12.785Z" fill="#979797"/>
</svg>
